<svg width="755" height="930" viewBox="0 0 755 930" fill="none" xmlns="http://www.w3.org/2000/svg">
<g opacity="0.8">
<path d="M295.622 297.276C299.451 296.88 318.513 295.039 318.513 295.039C318.513 295.039 319.542 337.322 319.511 359.843L357 536.34L337.327 556.285L322.069 565.83L320.297 530.922L291.388 382.51M295.622 297.276L298.858 359.843C298.858 359.843 292.621 379.675 291.388 382.51M295.622 297.276L258.741 303.497M291.388 382.51C291.388 382.51 271.563 367.741 261.172 355.464M265.788 472.972L276.7 485.24L274.501 510.523L241.231 535.154L203.628 494.452L170.913 459.042M265.788 472.972L265.602 460.916L264.871 413.443C264.604 409.646 260.174 389.98 259.965 382.994C259.756 376.007 258.877 372.42 259.518 353.983M265.788 472.972L214.807 418.737M259.518 353.983L258.741 303.497M259.518 353.983L261.172 355.464M258.741 303.497C255.114 308.075 234.69 326.478 234.69 326.478M258.741 303.497L179.837 222.181M234.69 326.478L261.172 355.464M234.69 326.478L217.188 342.532M177.445 378.989L134.813 419.968M177.445 378.989L214.807 418.737M177.445 378.989L141.722 340.346M177.445 378.989L206.067 352.734M134.813 419.968L170.913 459.042M134.813 419.968L74.7033 478.552M134.813 419.968L98.3332 380.207M214.807 418.737L170.913 459.042M170.913 459.042L130.812 500.032L74.7033 478.552M74.7033 478.552L43.2655 430.046L98.3332 380.207M98.3332 380.207L141.722 340.346M98.3332 380.207L58.1739 341.633L100.148 305.939M141.722 340.346L165.396 317.973M141.722 340.346L100.148 305.939M165.396 317.973L206.067 352.734M165.396 317.973L176.314 305.52M206.067 352.734L217.188 342.532M217.188 342.532L176.314 305.52M176.314 305.52L138.038 269.178M138.038 269.178L100.148 305.939M138.038 269.178L179.837 222.181M179.837 222.181L151.595 189.086L186.885 151.601L221.465 188.011M259.942 275.591L280.769 173.144L260.874 153.854L221.465 188.011M206.869 200.661L221.465 188.011" stroke="url(#paint0_linear_213_101)" stroke-opacity="0.4" stroke-width="5"/>
<path d="M532.624 367.711L467.551 424.08L475.426 496.614L576.973 459.311L574.486 452.679L532.624 367.711Z" fill="url(#paint1_linear_213_101)" fill-opacity="0.56"/>
<path d="M337.404 555.054L324.141 562.1L322.483 530.6L293.884 383.46L300.516 361.907L297.615 298.492L316.681 296.42L318.338 361.907L355.227 535.988L337.404 555.054Z" fill="url(#paint2_linear_213_101)" fill-opacity="0.56"/>
<path d="M401.008 609.146C402.691 614.764 399.918 605.454 401.008 609.146ZM401.008 609.146C411.682 605.32 462.32 594.862 462.32 594.862M401.008 609.146L418.053 664.921M462.32 594.862L471.664 616.359L489.753 618.359M462.32 594.862C440.174 598.954 426.53 601.675 398.795 607.707M462.32 594.862L564.367 550.085L624.744 519.77L652.18 541.381L660.648 556.643L630.363 562.767L569.256 587.572C569.256 587.572 491.303 618.423 489.753 618.359M489.753 618.359C489.753 618.359 478.863 640.553 468.696 653.016M583.373 626.964L593.436 613.991L618.694 611.523L649 639.721L615.871 684.141L587.049 722.787M583.373 626.964L571.554 629.354L525.018 638.764C521.334 639.723 502.812 647.678 495.982 649.163C489.152 650.647 485.786 652.169 467.543 654.913M583.373 626.964L539.388 687.013M467.543 654.913L418.053 664.921M467.543 654.913L468.696 653.016M418.053 664.921C423.217 667.649 445.049 684.358 445.049 684.358M418.053 664.921L352.558 757.379M418.053 664.921L285.87 667.131L270.548 690.222L311.343 722.711M445.049 684.358L468.696 653.016M445.049 684.358L464.036 698.624M507.152 731.021L555.245 765.43M507.152 731.021L539.388 687.013M507.152 731.021L475.704 773.215M507.152 731.021L476.101 707.689M555.245 765.43L587.049 722.787M555.245 765.43L623.844 813.797M555.245 765.43L522.834 808.573M539.388 687.013L587.049 722.787M587.049 722.787L634.687 754.704L623.844 813.797M623.844 813.797L581.913 853.585L522.834 808.573M522.834 808.573L475.704 773.215M522.834 808.573L492.265 855.116M475.704 773.215L443.689 751.776M475.704 773.215L449.49 820.386M443.689 751.776L476.101 707.689M443.689 751.776L435.133 745.585M476.101 707.689L464.036 698.624M464.036 698.624L435.133 745.585M435.133 745.585L406.413 789.867M406.413 789.867L449.49 820.386M406.413 789.867L352.558 757.379M449.49 820.386L492.265 855.116M492.265 855.116L504.585 862.809M352.558 757.379L325.193 791.203L281.88 763.372L311.343 722.711M326.452 734.744L311.343 722.711" stroke="url(#paint3_linear_213_101)" stroke-opacity="0.3" stroke-width="5"/>
<path d="M429.695 181.592L427.516 166.721L420.626 27.5275L486.532 41.5252L506.693 171.019L429.695 181.592ZM429.695 181.592L442.847 271.332L443.448 275.434M450.437 323.125L461.409 397.993L465.358 423.239M450.437 323.125L493.746 313.906L524.559 287.253L523.06 247.912L493.494 260.551L471.235 265.289L443.448 275.434M450.437 323.125L443.448 275.434M465.358 423.239L473.607 499.417L579.449 460.572L533.015 364.244C515.122 381.096 471.345 418.158 465.358 423.239Z" stroke="url(#paint4_linear_213_101)" stroke-opacity="0.4" stroke-width="5"/>
</g>
<g filter="url(#filter0_i_213_101)">
<path fill-rule="evenodd" clip-rule="evenodd" d="M353.886 182.611L403.064 520.718L416.76 569.801L280.621 618.054L280.621 603.133L392.047 558.62L338.637 198.071L353.886 182.611Z" fill="#05CAAD" fill-opacity="0.25"/>
</g>
<g filter="url(#filter1_i_213_101)">
<path fill-rule="evenodd" clip-rule="evenodd" d="M362.932 132.287L416.324 511.277L430.394 561.754L685.151 466.547L685.151 429.053L464.153 527.528L436.603 511.397L429.159 466.547L392.524 151.727L362.932 132.287Z" fill="#05CAAD" fill-opacity="0.25"/>
</g>
<path d="M415.309 439.226L403.787 454.02C402.633 455.501 402.12 457.383 402.361 459.245L409.283 512.537C409.328 512.879 409.397 513.217 409.491 513.549L424.456 566.332C425.572 570.266 429.797 572.422 433.637 571.015L687.677 477.965" stroke="#00B483" stroke-width="4" stroke-linecap="round"/>
<ellipse opacity="0.3" cx="414.868" cy="433.377" rx="7.06363" ry="3.59777" fill="white"/>
<path d="M429.243 409.426C429.243 421.807 414.868 433.378 414.868 433.378C414.868 433.378 400.493 421.807 400.493 409.426C400.493 401.564 406.929 395.19 414.868 395.19C422.807 395.19 429.243 401.564 429.243 409.426Z" fill="#00B483"/>
<path d="M415.689 413.381H411.341V410.639H415.689C416.361 410.639 416.908 410.529 417.33 410.311C417.752 410.084 418.06 409.771 418.256 409.373C418.451 408.975 418.548 408.525 418.548 408.025C418.548 407.518 418.451 407.045 418.256 406.607C418.06 406.17 417.752 405.818 417.33 405.553C416.908 405.287 416.361 405.154 415.689 405.154H412.56V419.463H409.045V402.4H415.689C417.025 402.4 418.17 402.643 419.123 403.127C420.084 403.604 420.818 404.264 421.326 405.107C421.834 405.951 422.088 406.916 422.088 408.002C422.088 409.104 421.834 410.057 421.326 410.861C420.818 411.666 420.084 412.287 419.123 412.725C418.17 413.162 417.025 413.381 415.689 413.381Z" fill="white"/>
<g filter="url(#filter2_d_213_101)">
<path d="M432.941 496.577L432.102 493.272C431.343 490.295 429.847 487.546 427.679 485.374C423.706 481.414 418.806 480.441 412.045 481.441L406.736 482.439C400.091 483.958 395.861 486.646 393.613 491.775C392.381 494.586 391.985 497.69 392.358 500.739L392.776 504.123C393.042 506.31 393.486 508.48 394.12 510.597L394.264 511.075L404.485 565.474C405.221 568.618 406.11 570.164 407.618 572.586C410.304 576.553 414.575 577.753 425.117 575.826L428.85 575.125C439.372 573.094 442.913 570.408 443.98 565.754C444.505 562.95 444.755 561.19 444.317 557.99L434.099 503.609L434.06 503.111C433.847 500.915 433.473 498.731 432.941 496.577ZM430.775 506.776L430.67 519.059C430.663 519.889 430.673 520.717 430.701 521.541C419.967 521.286 413.704 522.228 403.715 526.612C403.441 525.834 403.151 525.059 402.842 524.287L398.286 512.88C397.297 510.415 398.2 507.595 400.456 506.179C403.441 504.302 407.069 503.043 412.037 501.965L413.965 501.603C418.985 500.804 422.844 500.674 426.289 501.343C428.937 501.819 430.802 504.12 430.775 506.776Z" fill="white"/>
<path d="M400.245 486.327L402.083 505.278L402.293 505.239L401.141 486.267C400.738 486.343 400.443 486.416 400.245 486.327Z" fill="#E7E7E7"/>
<path d="M419.504 482.709L424.671 501.034L424.461 501.074L418.665 482.975C419.051 482.902 419.352 482.864 419.504 482.709Z" fill="#E7E7E7"/>
<path d="M438.776 555.731C439.169 557.821 439.258 559.554 438.988 561.011C438.927 560.878 438.83 560.752 438.717 560.629C438.616 561.153 438.49 561.646 438.362 562.12C437.919 563.628 436.865 564.872 435.485 565.637C433.312 566.82 431.192 567.507 428.234 568.279C427.491 568.473 426.758 568.629 426.004 568.77L425.514 568.863C424.778 569.001 424.039 569.122 423.31 569.205C420.257 569.562 418.032 569.691 415.56 569.38C414 569.187 412.58 568.389 411.603 567.148C411.293 566.756 411.015 566.339 410.71 565.873C410.66 565.991 410.627 566.105 410.597 566.237C409.802 564.998 409.246 563.389 408.863 561.351C408.696 560.463 408.578 559.547 408.496 558.625L438.111 553.061C438.407 553.961 438.609 554.843 438.776 555.731Z" fill="#4B545A"/>
<path d="M438.776 555.731C439.169 557.821 439.258 559.554 438.988 561.011C438.927 560.878 438.83 560.752 438.717 560.629C438.616 561.153 438.49 561.646 438.362 562.12C437.919 563.628 436.865 564.872 435.485 565.637C433.312 566.82 431.192 567.507 428.234 568.279C427.491 568.473 426.758 568.629 426.004 568.77L425.514 568.863C424.778 569.001 424.039 569.122 423.31 569.205C420.257 569.562 418.032 569.691 415.56 569.38C414 569.187 412.58 568.389 411.603 567.148C411.293 566.756 411.015 566.339 410.71 565.873C410.66 565.991 410.627 566.105 410.597 566.237C409.802 564.998 409.246 563.389 408.863 561.351C408.696 560.463 408.578 559.547 408.496 558.625L438.111 553.061C438.407 553.961 438.609 554.843 438.776 555.731Z" fill="#4388FC" fill-opacity="0.1"/>
<path d="M438.776 555.731C439.169 557.821 439.258 559.554 438.988 561.011C438.927 560.878 438.83 560.752 438.717 560.629C438.616 561.153 438.49 561.646 438.362 562.12C437.919 563.628 436.865 564.872 435.485 565.637C433.312 566.82 431.192 567.507 428.234 568.279C427.491 568.473 426.758 568.629 426.004 568.77L425.514 568.863C424.778 569.001 424.039 569.122 423.31 569.205C420.257 569.562 418.032 569.691 415.56 569.38C414 569.187 412.58 568.389 411.603 567.148C411.293 566.756 411.015 566.339 410.71 565.873C410.66 565.991 410.627 566.105 410.597 566.237C409.802 564.998 409.246 563.389 408.863 561.351C408.696 560.463 408.578 559.547 408.496 558.625L438.111 553.061C438.407 553.961 438.609 554.843 438.776 555.731Z" fill="url(#paint5_radial_213_101)" fill-opacity="0.77"/>
<path d="M408.167 553.98C408.433 555.589 408.709 557.25 409.018 559.086C409.044 559.225 409.035 559.371 408.988 559.506C408.795 560.119 408.41 560.39 407.721 560.393C406.702 560.278 406.044 559.482 405.715 557.921L396.544 514.325C396.537 514.291 396.53 514.256 396.524 514.221C396.545 514.235 396.569 514.267 396.593 514.298L397.284 515.178C397.429 515.367 397.559 515.577 397.657 515.811L400.508 523.066C402.526 528.205 403.956 532.824 404.858 537.235C406.499 543.942 407.282 548.592 408.167 553.98Z" fill="#4B545A"/>
<path d="M408.167 553.98C408.433 555.589 408.709 557.25 409.018 559.086C409.044 559.225 409.035 559.371 408.988 559.506C408.795 560.119 408.41 560.39 407.721 560.393C406.702 560.278 406.044 559.482 405.715 557.921L396.544 514.325C396.537 514.291 396.53 514.256 396.524 514.221C396.545 514.235 396.569 514.267 396.593 514.298L397.284 515.178C397.429 515.367 397.559 515.577 397.657 515.811L400.508 523.066C402.526 528.205 403.956 532.824 404.858 537.235C406.499 543.942 407.282 548.592 408.167 553.98Z" fill="#4388FC" fill-opacity="0.1"/>
<path d="M408.167 553.98C408.433 555.589 408.709 557.25 409.018 559.086C409.044 559.225 409.035 559.371 408.988 559.506C408.795 560.119 408.41 560.39 407.721 560.393C406.702 560.278 406.044 559.482 405.715 557.921L396.544 514.325C396.537 514.291 396.53 514.256 396.524 514.221C396.545 514.235 396.569 514.267 396.593 514.298L397.284 515.178C397.429 515.367 397.559 515.577 397.657 515.811L400.508 523.066C402.526 528.205 403.956 532.824 404.858 537.235C406.499 543.942 407.282 548.592 408.167 553.98Z" fill="url(#paint6_radial_213_101)" fill-opacity="0.77"/>
<path d="M402.097 540.694C403.354 541.107 404.237 541.175 405.76 541.069L405.154 538.424C403.688 537.96 402.576 537.448 401.2 536.498L402.097 540.694Z" fill="#4B545A"/>
<path d="M399.076 519.404L397.606 519.302L396.561 514.322C396.555 514.287 396.548 514.252 396.542 514.218C396.562 514.232 396.586 514.263 396.61 514.295L397.302 515.175C397.446 515.364 397.576 515.574 397.675 515.808L399.076 519.404Z" fill="#4B545A"/>
<path d="M436.696 548.62C437.032 550.216 437.378 551.864 437.757 553.686C437.783 553.826 437.844 553.958 437.937 554.067C438.34 554.569 438.797 554.681 439.44 554.434C440.348 553.957 440.671 552.976 440.412 551.402L433.134 507.451C433.127 507.416 433.12 507.381 433.114 507.346C433.1 507.367 433.089 507.405 433.078 507.443L432.753 508.514C432.687 508.743 432.642 508.986 432.635 509.24L432.601 517.073C432.586 522.594 432.93 527.416 433.691 531.854C434.59 538.664 435.565 543.278 436.696 548.62Z" fill="#4B545A"/>
<path d="M436.696 548.62C437.032 550.216 437.378 551.864 437.757 553.686C437.783 553.825 437.844 553.958 437.937 554.067C438.34 554.568 438.797 554.681 439.44 554.434C440.348 553.957 440.671 552.976 440.412 551.402L433.133 507.451C433.127 507.416 433.12 507.381 433.114 507.346C433.1 507.367 433.089 507.405 433.078 507.443L432.753 508.514C432.687 508.743 432.642 508.986 432.635 509.24L432.601 517.073C432.586 522.594 432.93 527.416 433.691 531.854C434.59 538.664 435.565 543.278 436.696 548.62Z" fill="#4388FC" fill-opacity="0.1"/>
<path d="M436.696 548.62C437.032 550.216 437.378 551.864 437.757 553.686C437.783 553.825 437.844 553.958 437.937 554.067C438.34 554.568 438.797 554.681 439.44 554.434C440.348 553.957 440.671 552.976 440.412 551.402L433.133 507.451C433.127 507.416 433.12 507.381 433.114 507.346C433.1 507.367 433.089 507.405 433.078 507.443L432.753 508.514C432.687 508.743 432.642 508.986 432.635 509.24L432.601 517.073C432.586 522.594 432.93 527.416 433.691 531.854C434.59 538.664 435.565 543.278 436.696 548.62Z" fill="url(#paint7_radial_213_101)" fill-opacity="0.77"/>
<path d="M437.533 534.053C436.512 534.894 435.713 535.279 434.257 535.733L433.861 533.048C435.059 532.084 435.909 531.203 436.846 529.818L437.533 534.053Z" fill="#4B545A"/>
<path d="M432.62 513.12L433.954 512.491L433.119 507.472C433.113 507.437 433.106 507.402 433.1 507.367C433.086 507.388 433.075 507.426 433.064 507.464L432.739 508.535C432.673 508.764 432.628 509.007 432.621 509.261L432.62 513.12Z" fill="#4B545A"/>
<path d="M397.592 516.618C397.775 517.016 397.804 517.263 397.791 517.68L396.337 517.953L396.137 516.891L397.592 516.618Z" fill="#594F4F"/>
<path d="M396.438 517.141L396.695 518.607C396.725 518.764 396.646 518.923 396.498 519.005L392.948 520.97C392.832 521.028 392.679 520.985 392.621 520.87C392.533 520.688 392.441 520.489 392.374 520.231C392.324 520.06 392.309 519.882 392.282 519.743C392.249 519.371 392.323 518.996 392.499 518.674C392.663 518.391 392.88 518.098 393.247 517.83C393.71 517.491 394.367 517.223 395.047 517.078C395.359 517.001 395.766 516.943 396.084 516.901C396.26 516.868 396.408 516.984 396.438 517.141Z" fill="#594F4F"/>
<path d="M432.972 509.971C432.945 510.409 433.009 510.649 433.171 511.033L434.626 510.76L434.426 509.697L432.972 509.971Z" fill="#594F4F"/>
<path d="M434.24 510.056L434.532 511.516C434.562 511.673 434.693 511.792 434.861 511.815L438.882 512.358C439.011 512.369 439.138 512.273 439.15 512.145C439.167 511.943 439.18 511.725 439.148 511.46C439.133 511.282 439.083 511.112 439.057 510.972C438.953 510.613 438.747 510.291 438.467 510.055C438.211 509.851 437.902 509.656 437.463 509.54C436.909 509.392 436.2 509.381 435.513 509.492C435.194 509.534 434.794 509.627 434.482 509.704C434.307 509.737 434.207 509.882 434.24 510.056Z" fill="#594F4F"/>
<path d="M399.049 487.201C395.774 490.143 394.183 493.165 393.899 497.546L393.506 495.456C393.274 494.219 393.472 492.956 394.101 491.864C395.338 489.756 396.658 488.282 399.049 487.201Z" fill="url(#paint8_linear_213_101)"/>
<path d="M399.049 487.201C395.774 490.143 394.183 493.165 393.899 497.546L393.506 495.456C393.274 494.219 393.472 492.956 394.101 491.864C395.338 489.756 396.658 488.282 399.049 487.201Z" fill="url(#paint9_linear_213_101)"/>
<path d="M393.914 497.525L393.524 495.453C393.292 494.216 393.49 492.952 394.119 491.86C395.339 489.756 396.658 488.281 399.05 487.201C395.774 490.143 394.18 493.147 393.914 497.525Z" fill="#D5E3F0"/>
<path d="M420.779 483.118C424.899 484.671 427.478 486.909 429.333 490.889L428.94 488.798C428.707 487.562 428.064 486.456 427.081 485.667C425.181 484.149 423.399 483.257 420.779 483.118Z" fill="url(#paint10_linear_213_101)"/>
<path d="M420.779 483.118C424.899 484.671 427.478 486.909 429.333 490.889L428.94 488.798C428.707 487.562 428.064 486.456 427.081 485.667C425.181 484.149 423.399 483.257 420.779 483.118Z" fill="url(#paint11_linear_213_101)"/>
<path d="M429.329 490.871L428.94 488.799C428.707 487.562 428.064 486.456 427.081 485.667C425.178 484.131 423.396 483.24 420.775 483.101C424.898 484.671 427.475 486.892 429.329 490.871Z" fill="#D5E3F0"/>
<path d="M415.449 576.705C411.498 576.437 409.257 575.037 407.603 572.607C407.161 571.896 406.768 571.249 406.416 570.63L406.786 570.668C408.028 570.813 409.135 571.489 409.835 572.512C410.964 574.175 411.935 574.804 414.547 575.576C415.066 575.731 415.424 576.187 415.449 576.705Z" fill="#D8394C"/>
<path d="M438.142 572.441C441.726 570.758 443.306 568.639 443.965 565.774C444.119 564.952 444.251 564.206 444.354 563.501L444.023 563.672C442.918 564.258 442.132 565.289 441.851 566.496C441.403 568.456 440.726 569.395 438.572 571.062C438.145 571.394 437.977 571.949 438.142 572.441Z" fill="#D8394C"/>
<path d="M414.781 505.849C419.924 505.027 423.684 504.952 426.941 505.584C428.354 505.86 429.566 506.714 430.302 507.928L430.198 519.057C430.197 519.724 430.198 520.409 430.214 521.074C424.478 520.961 420.356 521.231 416.518 521.952C412.628 522.683 408.728 523.939 403.981 526.003C403.755 525.378 403.525 524.736 403.264 524.118L399.145 513.783C399.39 512.384 400.21 511.148 401.426 510.379C404.25 508.604 407.766 507.33 412.853 506.212L414.781 505.849ZM414.696 505.397L412.768 505.759C407.8 506.837 404.158 508.116 401.187 509.973C399.791 510.848 398.899 512.278 398.68 513.816L402.86 524.284C403.168 525.055 403.459 525.83 403.732 526.608C408.609 524.466 412.591 523.159 416.639 522.398C420.897 521.598 425.217 521.417 430.736 521.535C430.708 520.71 430.698 519.883 430.705 519.052L430.804 507.798C430.024 506.448 428.691 505.436 427.073 505.127C423.574 504.468 419.716 504.598 414.696 505.397Z" fill="#1D1F24"/>
<path d="M430.769 507.805L430.67 519.058C430.663 519.889 430.673 520.717 430.701 521.541C419.967 521.286 413.704 522.228 403.715 526.612C403.441 525.834 403.151 525.059 402.842 524.287L398.665 513.837C398.902 512.296 399.777 510.869 401.173 509.994C404.158 508.116 407.786 506.857 412.754 505.78L414.682 505.417C419.702 504.618 423.56 504.489 427.006 505.158C428.656 505.443 429.989 506.455 430.769 507.805Z" fill="#4B545A"/>
<path d="M430.769 507.805L430.67 519.058C430.663 519.889 430.673 520.717 430.701 521.541C419.967 521.286 413.704 522.228 403.715 526.612C403.441 525.834 403.151 525.059 402.842 524.287L398.665 513.837C398.902 512.296 399.777 510.869 401.173 509.994C404.158 508.116 407.786 506.857 412.754 505.78L414.682 505.417C419.702 504.618 423.56 504.489 427.006 505.158C428.656 505.443 429.989 506.455 430.769 507.805Z" fill="#4388FC" fill-opacity="0.1"/>
<path d="M430.769 507.805L430.67 519.058C430.663 519.889 430.673 520.717 430.701 521.541C419.967 521.286 413.704 522.228 403.715 526.612C403.441 525.834 403.151 525.059 402.842 524.287L398.665 513.837C398.902 512.296 399.777 510.869 401.173 509.994C404.158 508.116 407.786 506.857 412.754 505.78L414.682 505.417C419.702 504.618 423.56 504.489 427.006 505.158C428.656 505.443 429.989 506.455 430.769 507.805Z" fill="url(#paint12_radial_213_101)" fill-opacity="0.77"/>
<path d="M430.776 506.776C430.803 504.12 428.937 501.819 426.321 501.319C422.858 500.653 419.021 500.797 413.997 501.579L412.069 501.941C407.101 503.019 403.459 504.298 400.488 506.155C398.232 507.571 397.329 510.391 398.318 512.856L398.698 513.813C398.934 512.272 399.809 510.845 401.205 509.97C404.19 508.092 407.818 506.833 412.786 505.756L414.714 505.394C419.734 504.594 423.592 504.465 427.038 505.134C428.657 505.443 430.007 506.451 430.769 507.805L430.776 506.776Z" fill="#4B545A"/>
<path d="M419.291 482.442C419.294 482.459 419.23 482.507 419.038 482.544L400.638 486.001C400.445 486.037 400.365 485.998 400.365 485.998C400.362 485.981 400.377 485.869 400.561 485.691L400.699 485.556C401.507 484.737 402.102 484.139 403.156 483.472C404.262 483.084 405.452 482.752 406.739 482.456L412.048 481.458C413.355 481.267 414.584 481.144 415.756 481.104C415.756 481.104 415.756 481.104 415.773 481.101C416.997 481.34 417.769 481.682 418.819 482.152L418.996 482.227C419.233 482.327 419.287 482.425 419.291 482.442Z" fill="#4B545A"/>
<path d="M408.514 556.403L437.253 551.004C437.253 551.004 437.87 553.009 437.091 555.452C435.379 560.823 413.075 564.744 410.192 560.506C408.75 558.387 408.514 556.403 408.514 556.403Z" fill="white"/>
</g>
<defs>
<filter id="filter0_i_213_101" x="280.621" y="182.611" width="136.139" height="439.443" filterUnits="userSpaceOnUse" color-interpolation-filters="sRGB">
<feFlood flood-opacity="0" result="BackgroundImageFix"/>
<feBlend mode="normal" in="SourceGraphic" in2="BackgroundImageFix" result="shape"/>
<feColorMatrix in="SourceAlpha" type="matrix" values="0 0 0 0 0 0 0 0 0 0 0 0 0 0 0 0 0 0 127 0" result="hardAlpha"/>
<feOffset dy="4"/>
<feGaussianBlur stdDeviation="2"/>
<feComposite in2="hardAlpha" operator="arithmetic" k2="-1" k3="1"/>
<feColorMatrix type="matrix" values="0 0 0 0 0 0 0 0 0 0 0 0 0 0 0 0 0 0 0.25 0"/>
<feBlend mode="normal" in2="shape" result="effect1_innerShadow_213_101"/>
</filter>
<filter id="filter1_i_213_101" x="362.932" y="132.287" width="322.219" height="433.468" filterUnits="userSpaceOnUse" color-interpolation-filters="sRGB">
<feFlood flood-opacity="0" result="BackgroundImageFix"/>
<feBlend mode="normal" in="SourceGraphic" in2="BackgroundImageFix" result="shape"/>
<feColorMatrix in="SourceAlpha" type="matrix" values="0 0 0 0 0 0 0 0 0 0 0 0 0 0 0 0 0 0 127 0" result="hardAlpha"/>
<feOffset dy="4"/>
<feGaussianBlur stdDeviation="2"/>
<feComposite in2="hardAlpha" operator="arithmetic" k2="-1" k3="1"/>
<feColorMatrix type="matrix" values="0 0 0 0 0 0 0 0 0 0 0 0 0 0 0 0 0 0 0.25 0"/>
<feBlend mode="normal" in2="shape" result="effect1_innerShadow_213_101"/>
</filter>
<filter id="filter2_d_213_101" x="381.997" y="477.545" width="72.3687" height="110.364" filterUnits="userSpaceOnUse" color-interpolation-filters="sRGB">
<feFlood flood-opacity="0" result="BackgroundImageFix"/>
<feColorMatrix in="SourceAlpha" type="matrix" values="0 0 0 0 0 0 0 0 0 0 0 0 0 0 0 0 0 0 127 0" result="hardAlpha"/>
<feOffset dy="4"/>
<feGaussianBlur stdDeviation="2"/>
<feColorMatrix type="matrix" values="0 0 0 0 0 0 0 0 0 0 0 0 0 0 0 0 0 0 0.3 0"/>
<feBlend mode="normal" in2="BackgroundImageFix" result="effect1_dropShadow_213_101"/>
<feBlend mode="normal" in="SourceGraphic" in2="effect1_dropShadow_213_101" result="shape"/>
</filter>
<linearGradient id="paint0_linear_213_101" x1="361.156" y1="374.841" x2="42.4909" y2="379.748" gradientUnits="userSpaceOnUse">
<stop stop-color="#05CAAD"/>
<stop offset="1" stop-color="#05CAAD" stop-opacity="0"/>
</linearGradient>
<linearGradient id="paint1_linear_213_101" x1="472.11" y1="475.475" x2="577.387" y2="459.725" gradientUnits="userSpaceOnUse">
<stop stop-color="#05CAAD"/>
<stop offset="0.355" stop-color="#05CAAD" stop-opacity="0.47449"/>
<stop offset="1" stop-color="#19D8C5" stop-opacity="0"/>
</linearGradient>
<linearGradient id="paint2_linear_213_101" x1="350.253" y1="423.25" x2="289.74" y2="434.855" gradientUnits="userSpaceOnUse">
<stop stop-color="#05CAAD"/>
<stop offset="1" stop-color="#026456" stop-opacity="0"/>
</linearGradient>
<linearGradient id="paint3_linear_213_101" x1="469.44" y1="551.175" x2="532.607" y2="863.555" gradientUnits="userSpaceOnUse">
<stop stop-color="#05CAAD"/>
<stop offset="1" stop-color="#05CAAD" stop-opacity="0"/>
</linearGradient>
<linearGradient id="paint4_linear_213_101" x1="530.088" y1="246.151" x2="433.465" y2="266.718" gradientUnits="userSpaceOnUse">
<stop stop-color="#05CAAD" stop-opacity="0"/>
<stop offset="1" stop-color="#05CAAD"/>
</linearGradient>
<radialGradient id="paint5_radial_213_101" cx="0" cy="0" r="1" gradientUnits="userSpaceOnUse" gradientTransform="translate(423.901 554.775) rotate(79.3586) scale(15.1536 50.3727)">
<stop stop-color="white" stop-opacity="0.8"/>
<stop offset="1" stop-color="white" stop-opacity="0.01"/>
</radialGradient>
<radialGradient id="paint6_radial_213_101" cx="0" cy="0" r="1" gradientUnits="userSpaceOnUse" gradientTransform="translate(408.076 564.142) rotate(79.3921) scale(51.8981 6.63573)">
<stop stop-color="white" stop-opacity="0.8"/>
<stop offset="1" stop-color="white" stop-opacity="0.01"/>
</radialGradient>
<radialGradient id="paint7_radial_213_101" cx="0" cy="0" r="1" gradientUnits="userSpaceOnUse" gradientTransform="translate(440.525 558.046) rotate(79.3922) scale(51.8981 6.64861)">
<stop stop-color="white" stop-opacity="0.8"/>
<stop offset="1" stop-color="white" stop-opacity="0.01"/>
</radialGradient>
<linearGradient id="paint8_linear_213_101" x1="393.057" y1="493.006" x2="399.906" y2="491.719" gradientUnits="userSpaceOnUse">
<stop offset="0.1548" stop-color="#A1A1A1"/>
<stop offset="0.9205" stop-color="white"/>
</linearGradient>
<linearGradient id="paint9_linear_213_101" x1="393.057" y1="493.006" x2="399.906" y2="491.719" gradientUnits="userSpaceOnUse">
<stop stop-color="#333333"/>
<stop offset="0.1883"/>
<stop offset="0.3849" stop-color="#333333"/>
<stop offset="0.5983"/>
<stop offset="0.8033" stop-color="#333333"/>
<stop offset="1"/>
</linearGradient>
<linearGradient id="paint10_linear_213_101" x1="428.482" y1="486.35" x2="421.632" y2="487.637" gradientUnits="userSpaceOnUse">
<stop offset="0.1548" stop-color="#A1A1A1"/>
<stop offset="0.9205" stop-color="white"/>
</linearGradient>
<linearGradient id="paint11_linear_213_101" x1="428.482" y1="486.35" x2="421.632" y2="487.637" gradientUnits="userSpaceOnUse">
<stop stop-color="#333333"/>
<stop offset="0.1883"/>
<stop offset="0.3849" stop-color="#333333"/>
<stop offset="0.5983"/>
<stop offset="0.8033" stop-color="#333333"/>
<stop offset="1"/>
</linearGradient>
<radialGradient id="paint12_radial_213_101" cx="0" cy="0" r="1" gradientUnits="userSpaceOnUse" gradientTransform="translate(417.712 525.479) rotate(80.0165) scale(20.5551 51.4959)">
<stop stop-color="white" stop-opacity="0.8"/>
<stop offset="1" stop-color="white" stop-opacity="0.01"/>
</radialGradient>
</defs>
</svg>
